PathFileType	4	(X/Y/Z)	subject01_synthetic_marker_data.trc
DataRate	CameraRate	NumFrames	NumMarkers	Units	OrigDataRate	OrigDataStartFrame	OrigNumFrames
60.000000	60.000000	14	31	m	60.000000	55	73
Frame#	Time		Sternum		R.Acromium		L.Acromium		Top.Head		R.ASIS		L.ASIS		V.Sacral		R.Thigh.Upper		R.Thigh.Front		R.Thigh.Rear		R.Shank.Upper		R.Shank.Front		R.Shank.Rear		R.Heel		R.Midfoot.Sup		R.Midfoot.Lat		R.Toe.Lat		R.Toe.Med		R.Toe.Tip		L.Thigh.Upper		L.Thigh.Front		L.Thigh.Rear		L.Shank.Upper		L.Shank.Front		L.Shank.Rear		L.Heel		L.Midfoot.Sup		L.Midfoot.Lat		L.Toe.Lat		L.Toe.Med		L.Toe.Tip
			X1	Y1	Z1	X2	Y2	Z2	X3	Y3	Z3	X4	Y4	Z4	X5	Y5	Z5	X6	Y6	Z6	X7	Y7	Z7	X8	Y8	Z8	X9	Y9	Z9	X10	Y10	Z10	X11	Y11	Z11	X12	Y12	Z12	X13	Y13	Z13	X14	Y14	Z14	X15	Y15	Z15	X16	Y16	Z16	X17	Y17	Z17	X18	Y18	Z18	X19	Y19	Z19	X20	Y20	Z20	X21	Y21	Z21	X22	Y22	Z22	X23	Y23	Z23	X24	Y24	Z24	X25	Y25	Z25	X26	Y26	Z26	X27	Y27	Z27	X28	Y28	Z28	X29	Y29	Z29	X30	Y30	Z30	X31	Y31	Z31

55	1.3	0.65396	1.3639	0.021091	0.55382	1.5113	0.1836	0.56579	1.5136	-0.15739	0.7053	1.7497	0.019785	0.59405	1.0574	0.16985	0.62248	1.033	-0.089755	0.4099	1.0377	0.030388	0.48935	0.71818	0.21219	0.53584	0.64277	0.1207	0.44564	0.60557	0.19885	0.32291	0.46962	0.17989	0.37311	0.3988	0.13078	0.29113	0.38843	0.18755	0.077139	0.14114	0.095657	0.2201	0.11065	0.071913	0.19972	0.089465	0.17716	0.27773	0.03944	0.19169	0.29258	0.054939	0.084627	0.34818	0.036606	0.12065	0.63286	0.75347	-0.14113	0.73078	0.75337	-0.078302	0.67206	0.65203	-0.12491	0.72496	0.44665	-0.11905	0.78705	0.41091	-0.070172	0.71732	0.40044	-0.12686	0.74301	0.072078	-0.037272	0.91012	0.11315	-0.0084508	0.89848	0.090157	-0.10492	0.96478	0.077294	-0.10936	0.9755	0.10127	-0.0093219	1.0253	0.10668	-0.033009
56	1.317	0.65565	1.3651	0.017825	0.55391	1.5134	0.17838	0.5679	1.5127	-0.16254	0.70533	1.751	0.013284	0.5966	1.0574	0.16825	0.62578	1.0343	-0.091386	0.41287	1.038	0.028212	0.49464	0.71842	0.21088	0.54186	0.64307	0.11971	0.45209	0.60531	0.19808	0.32931	0.4708	0.17977	0.37572	0.39739	0.13073	0.29337	0.39137	0.18762	0.066777	0.15642	0.096518	0.20738	0.11669	0.072364	0.18593	0.096727	0.17764	0.26053	0.041692	0.19189	0.2761	0.05635	0.084816	0.33048	0.03437	0.12067	0.6368	0.75434	-0.14286	0.73452	0.75447	-0.07973	0.67607	0.65297	-0.12635	0.72675	0.44728	-0.11998	0.78708	0.40902	-0.070798	0.71718	0.40142	-0.12774	0.7283	0.073036	-0.037612	0.89712	0.10565	-0.0079382	0.88486	0.083033	-0.10442	0.95044	0.066811	-0.10846	0.96181	0.090463	-0.0084144	1.0119	0.093274	-0.031832
57	1.333	0.65713	1.3668	0.014052	0.55429	1.516	0.17315	0.56895	1.5124	-0.16773	0.70478	1.7529	0.0063359	0.59954	1.058	0.16644	0.62897	1.0363	-0.093293	0.41597	1.0386	0.026176	0.50202	0.71918	0.20987	0.55089	0.64414	0.11932	0.46165	0.6052	0.19771	0.3398	0.47178	0.17991	0.38203	0.39569	0.1312	0.29936	0.39457	0.18791	0.060015	0.17457	0.097187	0.19697	0.12372	0.072939	0.17395	0.10528	0.17816	0.24388	0.044378	0.19228	0.2606	0.058008	0.08524	0.31303	0.03163	0.12105	0.64008	0.75531	-0.14479	0.73764	0.7553	-0.081427	0.67906	0.65387	-0.12802	0.72706	0.44784	-0.1212	0.78563	0.40721	-0.071778	0.71564	0.40239	-0.12892	0.71299	0.074093	-0.038287	0.88295	0.099544	-0.00809	0.87006	0.077303	-0.10458	0.93491	0.058298	-0.10837	0.94694	0.081622	-0.0083208	0.99721	0.082256	-0.031572
58	1.35	0.65833	1.3689	0.010413	0.55442	1.5186	0.16828	0.56964	1.5127	-0.17254	0.70386	1.7552	-3.81e-006	0.6028	1.0591	0.1641	0.63185	1.0393	-0.095819	0.41909	1.0393	0.024098	0.51146	0.72066	0.20926	0.56319	0.64605	0.11994	0.47436	0.60548	0.19798	0.35459	0.47275	0.18045	0.39251	0.39391	0.13256	0.30943	0.39821	0.18853	0.058372	0.19577	0.097204	0.18975	0.13162	0.073607	0.16432	0.11523	0.17861	0.22776	0.047629	0.19293	0.24645	0.059872	0.086049	0.29576	0.028296	0.12208	0.64268	0.75639	-0.1472	0.7401	0.75576	-0.083605	0.68087	0.6547	-0.13016	0.72557	0.44821	-0.12287	0.78238	0.40544	-0.073209	0.71243	0.40323	-0.13055	0.69694	0.075111	-0.039338	0.86761	0.094748	-0.0088244	0.85416	0.072832	-0.10531	0.91832	0.051605	-0.10894	0.93095	0.074637	-0.0089005	0.98125	0.073512	-0.032049
59	1.367	0.65959	1.3711	0.0068348	0.55452	1.5213	0.16351	0.57066	1.5134	-0.17723	0.70323	1.7576	-0.0058414	0.60622	1.0601	0.16104	0.63417	1.0423	-0.099145	0.42197	1.0403	0.021739	0.52231	0.72286	0.20925	0.57825	0.64889	0.12196	0.48981	0.60618	0.19929	0.37361	0.47354	0.18188	0.40726	0.39198	0.13537	0.3237	0.40207	0.18986	0.063144	0.21925	0.096534	0.18636	0.14013	0.07441	0.15762	0.12639	0.17894	0.2124	0.051704	0.19375	0.23399	0.062117	0.087215	0.27868	0.024776	0.12374	0.64375	0.75716	-0.15023	0.74107	0.75558	-0.086504	0.68074	0.65508	-0.13288	0.72175	0.44808	-0.12501	0.77694	0.40347	-0.075143	0.70705	0.40356	-0.13261	0.68013	0.075718	-0.040504	0.85126	0.090996	-0.010042	0.83723	0.069274	-0.10649	0.90082	0.046393	-0.11009	0.91406	0.069257	-0.010091	0.96432	0.066797	-0.033243
60	1.383	0.66081	1.3732	0.0033978	0.55489	1.5237	0.15919	0.57181	1.5144	-0.18147	0.70317	1.7598	-0.010843	0.60896	1.0607	0.15775	0.63604	1.0453	-0.10269	0.42427	1.0417	0.018911	0.53355	0.72593	0.21011	0.59491	0.65288	0.12574	0.50687	0.60764	0.20209	0.39584	0.47442	0.1848	0.42567	0.39037	0.14016	0.34154	0.40619	0.19237	0.075073	0.24328	0.095301	0.18749	0.14895	0.075377	0.15464	0.13844	0.17907	0.19889	0.057187	0.19448	0.22427	0.065344	0.088594	0.26282	0.022295	0.12583	0.64323	0.75766	-0.1537	0.74046	0.75475	-0.089876	0.6786	0.65507	-0.13599	0.71551	0.44748	-0.12744	0.76925	0.40137	-0.07736	0.69948	0.40341	-0.13492	0.66269	0.075872	-0.041678	0.8341	0.088124	-0.011463	0.81956	0.066472	-0.10785	0.88273	0.042442	-0.11149	0.8965	0.065258	-0.01155	0.94668	0.061847	-0.034761
61	1.4	0.66118	1.3755	0.00066362	0.55383	1.5262	0.15529	0.57253	1.5156	-0.18524	0.702	1.7622	-0.014955	0.611	1.0612	0.15456	0.63717	1.0484	-0.10611	0.42584	1.0432	0.01621	0.54462	0.72986	0.21171	0.61167	0.65813	0.1306	0.5243	0.61018	0.20605	0.41949	0.47594	0.18918	0.44621	0.38987	0.14646	0.36158	0.41067	0.19604	0.09297	0.26557	0.094338	0.19314	0.15798	0.07642	0.15615	0.15076	0.17899	0.18932	0.064421	0.19462	0.21868	0.070272	0.089606	0.25037	0.022358	0.12737	0.6415	0.7581	-0.15705	0.73855	0.75364	-0.093062	0.67498	0.65494	-0.13897	0.7076	0.44677	-0.12971	0.75996	0.39935	-0.079385	0.69037	0.40314	-0.13708	0.64474	0.075816	-0.04268	0.81633	0.086099	-0.012736	0.80139	0.064466	-0.10907	0.86426	0.039689	-0.11276	0.87845	0.0625	-0.012877	0.92855	0.058463	-0.036156
62	1.417	0.66182	1.3778	-0.0019831	0.55365	1.5287	0.15191	0.57371	1.5174	-0.18852	0.70215	1.7646	-0.018242	0.6125	1.0624	0.1512	0.63805	1.0523	-0.10965	0.42706	1.045	0.013148	0.55532	0.73493	0.21311	0.62768	0.66485	0.13519	0.5413	0.61426	0.21005	0.44304	0.4788	0.19398	0.46747	0.39121	0.15302	0.38244	0.41593	0.20006	0.11423	0.28443	0.093757	0.20323	0.16719	0.077475	0.16263	0.16295	0.17884	0.18622	0.073504	0.1944	0.21916	0.077198	0.090357	0.24458	0.025928	0.12845	0.63851	0.75854	-0.16051	0.73532	0.75197	-0.096337	0.66944	0.65467	-0.14198	0.69713	0.4458	-0.13188	0.74837	0.39746	-0.081296	0.67898	0.40252	-0.13912	0.62641	0.07548	-0.043349	0.79811	0.084674	-0.013683	0.78289	0.062917	-0.10994	0.84558	0.037707	-0.11367	0.86008	0.060655	-0.013861	0.91011	0.056225	-0.037205
63	1.433	0.66137	1.3799	-0.0040507	0.55246	1.5308	0.14932	0.57401	1.5194	-0.19102	0.70157	1.7667	-0.020275	0.61198	1.0632	0.14832	0.63802	1.0561	-0.11258	0.42684	1.0468	0.0097456	0.56519	0.74005	0.21368	0.6423	0.67238	0.13822	0.55776	0.61875	0.21306	0.46653	0.48201	0.19822	0.48901	0.39335	0.15844	0.40388	0.42112	0.20354	0.13567	0.29936	0.093348	0.21716	0.17661	0.078414	0.17408	0.17462	0.17882	0.19141	0.083765	0.19441	0.22687	0.085714	0.091154	0.24801	0.032735	0.12952	0.63412	0.75899	-0.16388	0.73059	0.75023	-0.099456	0.66238	0.65445	-0.14488	0.68516	0.44495	-0.13391	0.73543	0.39589	-0.083027	0.66625	0.40198	-0.14102	0.60783	0.075266	-0.043871	0.7796	0.083786	-0.014384	0.76419	0.061851	-0.11057	0.82677	0.036359	-0.11429	0.84146	0.059497	-0.014556	0.89145	0.05479	-0.037934
64	1.45	0.66011	1.3826	-0.0057799	0.55005	1.5331	0.14717	0.57345	1.5221	-0.19306	0.69956	1.7695	-0.021338	0.61111	1.0648	0.14533	0.6377	1.0599	-0.11557	0.42631	1.0489	0.006247	0.57477	0.7458	0.21333	0.65578	0.68097	0.13949	0.57359	0.62429	0.21471	0.48916	0.48635	0.20118	0.51023	0.39707	0.16206	0.42513	0.42686	0.20591	0.15592	0.31056	0.092661	0.23472	0.18589	0.07923	0.19026	0.18527	0.17906	0.20525	0.094094	0.19517	0.24213	0.094843	0.092398	0.26151	0.041523	0.13122	0.62924	0.75954	-0.16696	0.7253	0.74849	-0.10227	0.6547	0.65436	-0.1475	0.67248	0.44433	-0.13569	0.72182	0.39463	-0.084516	0.65287	0.40165	-0.14267	0.58906	0.075322	-0.044193	0.76088	0.083311	-0.014872	0.74531	0.061189	-0.11099	0.8078	0.035467	-0.1147	0.82265	0.058804	-0.015035	0.87261	0.053862	-0.038443
65	1.467	0.65982	1.3862	-0.0069176	0.54814	1.5363	0.14521	0.57437	1.5256	-0.19482	0.69848	1.7731	-0.021932	0.6127	1.0685	0.14164	0.63695	1.063	-0.11947	0.42668	1.052	0.0042675	0.58477	0.75257	0.21279	0.66871	0.69063	0.13974	0.58892	0.63114	0.21537	0.51035	0.49208	0.20277	0.53087	0.40259	0.16382	0.44574	0.43319	0.20705	0.1751	0.31807	0.091544	0.25541	0.19422	0.079632	0.21044	0.19396	0.17923	0.2264	0.10311	0.19623	0.26381	0.10338	0.093648	0.28361	0.05064	0.13305	0.62364	0.76004	-0.16913	0.71927	0.74649	-0.10428	0.64613	0.65425	-0.14937	0.65878	0.44373	-0.13698	0.70736	0.39347	-0.085627	0.63855	0.40133	-0.14385	0.57016	0.075321	-0.044362	0.74205	0.082893	-0.015358	0.72625	0.060669	-0.11142	0.78866	0.034774	-0.1152	0.80375	0.058221	-0.015594	0.85365	0.05311	-0.039083
66	1.483	0.65818	1.3894	-0.0076533	0.54507	1.5392	0.14375	0.57393	1.5288	-0.19609	0.69627	1.7765	-0.02202	0.61224	1.0721	0.13887	0.63539	1.0663	-0.12234	0.42569	1.0547	0.0023205	0.59398	0.75913	0.21158	0.68047	0.70063	0.13867	0.60366	0.63803	0.21488	0.53122	0.49766	0.20306	0.55182	0.40826	0.16394	0.46661	0.43875	0.20709	0.19437	0.32173	0.090271	0.27879	0.20052	0.079639	0.23396	0.19988	0.1793	0.25299	0.10982	0.19731	0.29025	0.11018	0.094669	0.31185	0.058582	0.13463	0.61685	0.76061	-0.17093	0.71193	0.74433	-0.10589	0.63613	0.65423	-0.15092	0.64353	0.44331	-0.13807	0.69154	0.39266	-0.086577	0.62287	0.4011	-0.14487	0.55118	0.075416	-0.044599	0.72312	0.082634	-0.015772	0.70718	0.060316	-0.11179	0.76953	0.034273	-0.11559	0.78477	0.05782	-0.016035	0.83463	0.052563	-0.039565
67	1.5	0.65712	1.3922	-0.0084218	0.54292	1.5419	0.14221	0.57422	1.5317	-0.1974	0.6953	1.7792	-0.022373	0.6123	1.0754	0.13588	0.63317	1.0684	-0.12549	0.42456	1.0575	0.0010421	0.60276	0.76542	0.2099	0.69129	0.71055	0.13662	0.61769	0.64486	0.21339	0.55113	0.50296	0.20211	0.5727	0.41395	0.16262	0.48724	0.44327	0.20611	0.21432	0.32115	0.08908	0.30421	0.20387	0.079201	0.26001	0.20222	0.17913	0.2833	0.11333	0.19796	0.31994	0.11433	0.0951	0.34413	0.064218	0.13547	0.60978	0.76091	-0.17231	0.70425	0.74222	-0.10703	0.62619	0.65409	-0.15209	0.62879	0.44295	-0.1389	0.67613	0.39183	-0.087239	0.60765	0.40096	-0.14566	0.53219	0.07558	-0.044795	0.70416	0.082454	-0.016067	0.68811	0.060103	-0.11206	0.75041	0.033926	-0.11588	0.76575	0.05751	-0.016347	0.81559	0.052131	-0.039901
68	1.517	0.65557	1.3948	-0.0088822	0.54056	1.5443	0.14144	0.57351	1.5346	-0.19804	0.6936	1.7819	-0.022019	0.61239	1.079	0.13302	0.63043	1.0701	-0.12849	0.4232	1.0601	0.00036403	0.61104	0.7716	0.20815	0.70124	0.72037	0.13425	0.63087	0.65174	0.21148	0.56992	0.50805	0.20047	0.59341	0.41972	0.16056	0.5075	0.44683	0.20458	0.23558	0.31657	0.088103	0.33152	0.20417	0.078501	0.28819	0.20103	0.17878	0.31632	0.11367	0.19815	0.35211	0.11573	0.095015	0.37923	0.067324	0.13561	0.60192	0.76094	-0.17325	0.69569	0.73962	-0.10777	0.61524	0.65371	-0.1529	0.6129	0.44242	-0.13947	0.65974	0.39096	-0.087709	0.5914	0.40061	-0.1462	0.51315	0.075452	-0.044897	0.68514	0.082113	-0.016294	0.669	0.059741	-0.11226	0.73126	0.033481	-0.11612	0.7467	0.057087	-0.016606	0.79652	0.051632	-0.040193
